<svg version="1.1" id="Layer_1" xmlns="http://www.w3.org/2000/svg" xmlns:xlink="http://www.w3.org/1999/xlink" x="0px" y="0px"
	 width="100%" viewBox="0 0 536 537" enable-background="new 0 0 536 537" xml:space="preserve">
<path fill="#4E6CEA" opacity="1.000000" stroke="none" 
	d="
M355.000000,538.000000 
	C236.694107,538.000000 118.888199,538.000000 1.041150,538.000000 
	C1.041150,359.069122 1.041150,180.138214 1.041150,1.103661 
	C179.555908,1.103661 358.111908,1.103661 536.833984,1.103661 
	C536.833984,179.999878 536.833984,358.999939 536.833984,538.000000 
	C476.471527,538.000000 415.985748,538.000000 355.000000,538.000000 
M117.641090,390.868896 
	C128.078552,400.353546 138.516022,409.838226 148.971802,419.339539 
	C149.904312,418.541504 150.456146,418.162537 150.894684,417.680511 
	C178.233917,387.628876 205.925812,357.888184 232.804352,327.429749 
	C267.471619,288.145233 265.364746,224.901627 227.753632,188.476517 
	C207.678986,169.034897 185.907669,151.344559 164.889694,132.877960 
	C157.536423,126.417297 150.145966,119.998962 142.482468,113.308105 
	C132.127945,125.152740 122.072548,136.655182 111.765717,148.445251 
	C113.724663,150.176102 115.437286,151.704269 117.165779,153.214264 
	C141.995895,174.905762 166.814423,196.610535 191.666336,218.277023 
	C202.319290,227.564529 208.453827,239.254654 210.052078,253.218079 
	C212.096848,271.082428 207.130890,286.651031 194.825439,300.036713 
	C169.021393,328.106079 143.455322,356.394287 117.801147,384.601318 
	C116.215973,386.344238 113.526695,388.024658 117.641090,390.868896 
M385.454651,180.955719 
	C397.726929,170.215469 409.999176,159.475220 422.604828,148.443192 
	C412.230896,136.596970 402.110016,125.039757 391.902496,113.383583 
	C390.152496,114.837784 388.984039,115.766258 387.861755,116.747520 
	C362.655518,138.786896 337.502594,160.887482 312.241577,182.863846 
	C269.094269,220.400757 265.024567,287.347260 303.493591,329.838074 
	C329.765747,358.856903 356.183807,387.743652 382.552094,416.675385 
	C383.394531,417.599762 384.406860,418.369263 385.474884,419.332611 
	C396.997833,408.810913 408.244171,398.541779 419.569489,388.200500 
	C418.471649,386.880798 417.868561,386.096039 417.204803,385.366425 
	C390.975403,356.536255 364.751404,327.701202 338.502899,298.888458 
	C317.079376,275.371979 319.186859,238.697174 343.136505,217.923325 
	C357.107513,205.804916 371.009216,193.606598 385.454651,180.955719 
z"/>
<path fill="#FEFEFF" opacity="1.000000" stroke="none" 
	d="
M117.379898,390.637390 
	C113.526695,388.024658 116.215973,386.344238 117.801147,384.601318 
	C143.455322,356.394287 169.021393,328.106079 194.825439,300.036713 
	C207.130890,286.651031 212.096848,271.082428 210.052078,253.218079 
	C208.453827,239.254654 202.319290,227.564529 191.666336,218.277023 
	C166.814423,196.610535 141.995895,174.905762 117.165779,153.214264 
	C115.437286,151.704269 113.724663,150.176102 111.765717,148.445251 
	C122.072548,136.655182 132.127945,125.152740 142.482468,113.308105 
	C150.145966,119.998962 157.536423,126.417297 164.889694,132.877960 
	C185.907669,151.344559 207.678986,169.034897 227.753632,188.476517 
	C265.364746,224.901627 267.471619,288.145233 232.804352,327.429749 
	C205.925812,357.888184 178.233917,387.628876 150.894684,417.680511 
	C150.456146,418.162537 149.904312,418.541504 148.971802,419.339539 
	C138.516022,409.838226 128.078552,400.353546 117.379898,390.637390 
z"/>
<path fill="#FEFEFF" opacity="1.000000" stroke="none" 
	d="
M385.198364,181.199966 
	C371.009216,193.606598 357.107513,205.804916 343.136505,217.923325 
	C319.186859,238.697174 317.079376,275.371979 338.502899,298.888458 
	C364.751404,327.701202 390.975403,356.536255 417.204803,385.366425 
	C417.868561,386.096039 418.471649,386.880798 419.569489,388.200500 
	C408.244171,398.541779 396.997833,408.810913 385.474884,419.332611 
	C384.406860,418.369263 383.394531,417.599762 382.552094,416.675385 
	C356.183807,387.743652 329.765747,358.856903 303.493591,329.838074 
	C265.024567,287.347260 269.094269,220.400757 312.241577,182.863846 
	C337.502594,160.887482 362.655518,138.786896 387.861755,116.747520 
	C388.984039,115.766258 390.152496,114.837784 391.902496,113.383583 
	C402.110016,125.039757 412.230896,136.596970 422.604828,148.443192 
	C409.999176,159.475220 397.726929,170.215469 385.198364,181.199966 
z"/>
</svg>