<svg version="1.1" id="Layer_1" xmlns="http://www.w3.org/2000/svg" xmlns:xlink="http://www.w3.org/1999/xlink" x="0px" y="0px"
	 width="100%" viewBox="0 0 536 537" enable-background="new 0 0 536 537" xml:space="preserve">
<path fill="#FFFFFF" opacity="1.000000" stroke="none" 
	d="
M369.000000,538.000000 
	C246.028519,538.000000 123.557037,538.000000 1.042780,538.000000 
	C1.042780,359.070190 1.042780,180.140396 1.042780,1.105291 
	C179.554810,1.105291 358.109711,1.105291 536.832275,1.105291 
	C536.832275,179.999863 536.832275,358.999939 536.832275,538.000000 
	C481.140350,538.000000 425.320160,538.000000 369.000000,538.000000 
M252.934845,292.465149 
	C253.328445,290.657135 253.722046,288.849152 254.772797,286.585083 
	C255.843063,277.638062 257.936462,268.668457 257.739838,259.749359 
	C257.456329,246.890366 255.640991,234.040863 250.023010,221.432205 
	C249.696075,220.916763 249.369156,220.401306 248.986755,219.212891 
	C248.374084,217.808350 247.761414,216.403793 247.006668,214.277405 
	C240.575577,205.256668 234.894379,195.556213 227.505173,187.403900 
	C219.924545,179.040390 210.700226,172.160431 202.147751,164.685562 
	C189.393784,153.538559 176.608398,142.427444 163.816208,131.324326 
	C156.777481,125.215004 149.697449,119.153282 142.461624,112.919823 
	C140.765579,114.787170 139.326080,116.372070 137.297409,118.285278 
	C136.894897,118.992302 136.598740,119.792381 136.073853,120.392342 
	C128.696579,128.824860 121.370888,137.305389 113.832695,145.592331 
	C111.789726,147.838242 111.669830,149.417236 113.902832,151.376541 
	C117.250420,154.313812 120.489098,157.375427 123.843742,160.304382 
	C136.618393,171.457962 149.401382,182.602158 162.221344,193.703598 
	C168.683060,199.299057 175.376190,204.635315 181.697388,210.382767 
	C187.667923,215.811325 193.843826,221.168137 198.942368,227.368210 
	C208.392227,238.859726 211.288879,252.686142 209.864822,267.190552 
	C208.866287,277.360748 205.568146,287.009491 198.577148,294.887115 
	C191.890930,302.421326 185.022507,309.793549 178.261002,317.261261 
	C162.527100,334.638519 146.802536,352.024231 131.088760,369.419678 
	C125.387329,375.731323 119.727364,382.080414 113.890816,388.588196 
	C124.552696,398.162323 134.970047,407.309906 145.113358,416.751831 
	C148.145309,419.574097 150.247772,419.639008 152.939957,416.616608 
	C162.925690,405.405945 173.000854,394.274933 183.651642,382.825775 
	C184.806259,381.230927 185.960876,379.636078 187.712738,377.770538 
	C189.822647,375.551697 191.932556,373.332855 194.651672,370.825775 
	C195.806290,369.230957 196.960907,367.636108 198.708344,365.774445 
	C200.486374,363.887634 202.264420,362.000824 204.651657,359.825775 
	C205.806274,358.230927 206.960892,356.636108 208.708328,354.774445 
	C210.486359,352.887634 212.264404,351.000824 214.651642,348.825775 
	C215.806259,347.230927 216.960876,345.636078 218.708328,343.774445 
	C220.486374,341.887634 222.264420,340.000824 224.651657,337.825775 
	C225.806274,336.230927 226.960892,334.636108 228.672760,332.807404 
	C229.462708,331.909546 230.252670,331.011688 231.660217,329.818451 
	C241.216965,319.230255 248.201263,307.172516 252.601898,293.312744 
	C252.601898,293.312744 252.587509,293.020142 252.934845,292.465149 
M331.858154,289.379822 
	C331.256683,288.552612 330.655212,287.725403 329.983185,286.164856 
	C329.304901,284.523712 328.600891,282.892609 327.952484,281.239746 
	C323.852661,270.789154 323.147461,260.035370 325.746490,248.629715 
	C326.113464,247.214859 326.254883,245.689453 326.885040,244.403580 
	C330.227509,237.583023 333.692719,230.822617 337.719452,223.764557 
	C339.017578,222.480331 340.252106,221.123398 341.623749,219.923172 
	C354.614716,208.555801 367.599854,197.181412 380.649750,185.881866 
	C386.599640,180.729965 392.777802,175.840378 398.694305,170.651550 
	C405.240784,164.910263 411.606384,158.962769 418.666565,152.812180 
	C420.079163,151.524597 421.491791,150.237030 423.182343,148.696106 
	C412.774994,136.731415 402.400543,124.804535 391.902679,112.735771 
	C388.365326,115.992409 385.125580,118.975052 381.359985,122.162788 
	C380.892517,122.737175 380.425049,123.311554 379.343170,124.171700 
	C377.524048,125.767029 375.704956,127.362358 373.360016,129.162811 
	C372.892548,129.737198 372.425049,130.311584 371.343140,131.171692 
	C369.524017,132.767029 367.704926,134.362350 365.360016,136.162827 
	C364.892548,136.737213 364.425049,137.311600 363.343140,138.171707 
	C361.524048,139.767029 359.704926,141.362366 357.360016,143.162827 
	C356.892548,143.737213 356.425049,144.311600 355.343140,145.171707 
	C353.524048,146.767044 351.704956,148.362366 349.437225,150.103790 
	C349.152374,150.287872 348.992493,150.548599 348.343140,151.171707 
	C346.524048,152.767044 344.704956,154.362366 342.360016,156.162811 
	C341.892517,156.737198 341.425049,157.311584 340.343140,158.171707 
	C338.524017,159.767029 336.704926,161.362350 334.360016,163.162811 
	C333.892517,163.737198 333.425049,164.311584 332.343140,165.171707 
	C330.524048,166.767029 328.704926,168.362366 326.360016,170.162811 
	C325.892548,170.737198 325.425049,171.311584 324.343140,172.171722 
	C322.524048,173.767044 320.704956,175.362366 318.360016,177.162827 
	C317.892548,177.737213 317.425049,178.311600 316.343140,179.171707 
	C314.524048,180.767029 312.704926,182.362350 310.283936,184.232239 
	C301.785339,191.923309 294.607452,200.697952 289.193970,210.802002 
	C278.208130,231.306534 274.840485,253.127823 277.948151,276.131409 
	C280.724640,296.683685 289.102448,314.636597 302.692993,330.098663 
	C315.459778,344.623627 328.592407,358.828278 341.633453,373.110504 
	C355.330780,388.111481 369.110413,403.037231 383.139282,418.602631 
	C384.785919,420.697998 386.039490,420.004730 387.804657,417.987152 
	C396.884003,409.696045 405.963318,401.404938 415.656464,392.821747 
	C417.345062,391.527863 419.033661,390.233978 421.070343,388.673340 
	C419.119202,386.839355 418.085388,385.867615 416.774658,384.291382 
	C408.596436,375.439606 400.406982,366.598145 392.245026,357.731415 
	C388.557831,353.725861 384.954041,349.643463 381.262390,345.642059 
	C370.872345,334.380157 360.456360,323.142212 349.977875,311.439972 
	C349.977875,311.439972 349.833405,311.002625 349.763092,310.342285 
	C344.858276,305.192413 339.953491,300.042542 334.973999,294.232605 
	C334.023254,292.809906 333.072510,291.387238 331.858154,289.379822 
z"/>
<path fill="#4E6CEA" opacity="1.000000" stroke="none" 
	d="
M231.042603,330.113800 
	C230.252670,331.011688 229.462708,331.909546 228.027847,332.945374 
	C226.269440,334.760223 225.155945,336.437103 224.042450,338.114014 
	C222.264420,340.000824 220.486374,341.887634 218.045624,343.928894 
	C216.269440,345.760223 215.155945,347.437103 214.042450,349.114014 
	C212.264404,351.000824 210.486359,352.887634 208.045639,354.928894 
	C206.269455,356.760223 205.155960,358.437134 204.042465,360.114014 
	C202.264420,362.000824 200.486374,363.887634 198.045639,365.928894 
	C196.269440,367.760223 195.155945,369.437103 194.042450,371.114014 
	C191.932556,373.332855 189.822647,375.551697 187.047852,377.926941 
	C185.269455,379.760223 184.155960,381.437134 183.042450,383.114014 
	C173.000854,394.274933 162.925690,405.405945 152.939957,416.616608 
	C150.247772,419.639008 148.145309,419.574097 145.113358,416.751831 
	C134.970047,407.309906 124.552696,398.162323 113.890816,388.588196 
	C119.727364,382.080414 125.387329,375.731323 131.088760,369.419678 
	C146.802536,352.024231 162.527100,334.638519 178.261002,317.261261 
	C185.022507,309.793549 191.890930,302.421326 198.577148,294.887115 
	C205.568146,287.009491 208.866287,277.360748 209.864822,267.190552 
	C211.288879,252.686142 208.392227,238.859726 198.942368,227.368210 
	C193.843826,221.168137 187.667923,215.811325 181.697388,210.382767 
	C175.376190,204.635315 168.683060,199.299057 162.221344,193.703598 
	C149.401382,182.602158 136.618393,171.457962 123.843742,160.304382 
	C120.489098,157.375427 117.250420,154.313812 113.902832,151.376541 
	C111.669830,149.417236 111.789726,147.838242 113.832695,145.592331 
	C121.370888,137.305389 128.696579,128.824860 136.073853,120.392342 
	C136.598740,119.792381 136.894897,118.992302 137.960236,118.166702 
	C145.409912,123.395409 152.363220,128.547165 158.937408,134.144196 
	C165.695618,139.897888 171.955795,146.233948 178.665039,152.048431 
	C187.847809,160.006546 197.458969,167.478790 206.496658,175.593475 
	C215.397827,183.585526 224.009079,191.928040 232.353943,200.499939 
	C236.243973,204.495850 239.204239,209.396927 242.585938,213.887711 
	C242.304779,214.258224 242.023605,214.628738 241.742447,214.999252 
	C243.544556,214.999252 245.346649,214.999252 247.148758,214.999252 
	C247.761414,216.403793 248.374084,217.808350 249.027237,219.880615 
	C249.440720,221.057510 249.813721,221.566681 250.186722,222.075836 
	C255.640991,234.040863 257.456329,246.890366 257.739838,259.749359 
	C257.936462,268.668457 255.843063,277.638062 254.072906,286.838562 
	C249.873047,288.639008 250.520752,290.735565 252.587509,293.020142 
	C252.587509,293.020142 252.601898,293.312744 251.984512,293.302185 
	C251.019012,293.314301 250.670883,293.337006 250.320618,293.340668 
	C250.318451,293.321655 250.335236,293.277771 250.184387,293.652008 
	C245.808197,302.439362 241.651169,310.887756 237.326263,319.249390 
	C235.406403,322.961212 233.147568,326.497711 231.042603,330.113800 
M246.686752,222.954590 
	C246.923950,223.097900 247.161163,223.241211 247.398361,223.384521 
	C247.485886,223.140106 247.573395,222.895706 247.660904,222.651291 
	C247.308868,222.610184 246.956848,222.569092 246.686752,222.954590 
z"/>
<path fill="#4E6CEA" opacity="1.000000" stroke="none" 
	d="
M324.957550,171.885971 
	C325.425049,171.311584 325.892548,170.737198 327.037170,170.072525 
	C331.617615,170.501160 333.125641,168.555771 332.957550,164.885971 
	C333.425049,164.311584 333.892517,163.737198 335.037170,163.072525 
	C339.617615,163.501160 341.125641,161.555771 340.957550,157.885971 
	C341.425049,157.311584 341.892517,156.737198 343.037170,156.072525 
	C347.617615,156.501160 349.125641,154.555771 348.957550,150.885971 
	C348.992493,150.548599 349.152374,150.287872 350.075806,150.043015 
	C354.617615,150.501160 356.125641,148.555771 355.957550,144.885986 
	C356.425049,144.311600 356.892548,143.737213 358.037170,143.072540 
	C362.617615,143.501160 364.125641,141.555771 363.957550,137.885986 
	C364.425049,137.311600 364.892548,136.737213 366.037170,136.072540 
	C370.617615,136.501160 372.125641,134.555771 371.957550,130.885971 
	C372.425049,130.311584 372.892548,129.737198 374.037170,129.072525 
	C378.617615,129.501144 380.125641,127.555763 379.957581,123.885941 
	C380.425049,123.311554 380.892517,122.737175 382.029175,122.072403 
	C384.891602,121.255417 387.084839,120.528809 390.305511,119.461830 
	C391.907776,121.140762 394.270874,123.411873 396.398071,125.885880 
	C401.913269,132.300293 407.394012,138.747345 412.741180,145.301575 
	C414.722534,147.730179 416.292908,150.494080 418.050720,153.105072 
	C411.606384,158.962769 405.240784,164.910263 398.694305,170.651550 
	C392.777802,175.840378 386.599640,180.729965 380.649750,185.881866 
	C367.599854,197.181412 354.614716,208.555801 341.623749,219.923172 
	C340.252106,221.123398 339.017578,222.480331 337.061066,223.921585 
	C329.791351,229.580246 325.502441,236.489990 324.084381,245.005066 
	C323.875244,246.260925 324.740356,247.695648 325.108429,249.047623 
	C323.147461,260.035370 323.852661,270.789154 327.952484,281.239746 
	C328.600891,282.892609 329.304901,284.523712 329.820557,286.822327 
	C327.284180,288.851379 326.103638,290.443146 328.336426,292.989655 
	C331.106934,296.149445 333.804871,299.374695 336.473969,302.621155 
	C341.446594,308.669464 346.244354,314.866821 351.357330,320.793030 
	C357.255859,327.629700 363.382294,334.271484 369.471863,340.941193 
	C377.229889,349.438293 385.012848,357.913422 392.877960,366.311005 
	C394.296082,367.825134 396.409119,368.700867 397.778137,370.246216 
	C402.946655,376.080353 407.940643,382.069122 413.156067,388.315063 
	C413.888947,390.124695 414.465790,391.619263 415.042633,393.113831 
	C405.963318,401.404938 396.884003,409.696045 387.034424,418.001984 
	C385.127502,418.009827 383.990784,418.002838 382.854095,417.995850 
	C369.110413,403.037231 355.330780,388.111481 341.633453,373.110504 
	C328.592407,358.828278 315.459778,344.623627 302.692993,330.098663 
	C289.102448,314.636597 280.724640,296.683685 277.948151,276.131409 
	C274.840485,253.127823 278.208130,231.306534 289.193970,210.802002 
	C294.607452,200.697952 301.785339,191.923309 310.999146,184.107239 
	C315.617615,184.501160 317.125641,182.555771 316.957550,178.885986 
	C317.425049,178.311600 317.892548,177.737213 319.037170,177.072540 
	C323.617615,177.501160 325.125641,175.555771 324.957550,171.885971 
z"/>
<path fill="#4E6CEA" opacity="1.000000" stroke="none" 
	d="
M247.077713,214.638336 
	C245.346649,214.999252 243.544556,214.999252 241.742447,214.999252 
	C242.023605,214.628738 242.304779,214.258224 242.585938,213.887711 
	C239.204239,209.396927 236.243973,204.495850 232.353943,200.499939 
	C224.009079,191.928040 215.397827,183.585526 206.496658,175.593475 
	C197.458969,167.478790 187.847809,160.006546 178.665039,152.048431 
	C171.955795,146.233948 165.695618,139.897888 158.937408,134.144196 
	C152.363220,128.547165 145.409912,123.395409 138.254822,118.002556 
	C139.326080,116.372070 140.765579,114.787170 142.461624,112.919823 
	C149.697449,119.153282 156.777481,125.215004 163.816208,131.324326 
	C176.608398,142.427444 189.393784,153.538559 202.147751,164.685562 
	C210.700226,172.160431 219.924545,179.040390 227.505173,187.403900 
	C234.894379,195.556213 240.575577,205.256668 247.077713,214.638336 
z"/>
<path fill="#4E6CEA" opacity="1.000000" stroke="none" 
	d="
M413.000000,388.000000 
	C407.940643,382.069122 402.946655,376.080353 397.778137,370.246216 
	C396.409119,368.700867 394.296082,367.825134 392.877960,366.311005 
	C385.012848,357.913422 377.229889,349.438293 369.471863,340.941193 
	C363.382294,334.271484 357.255859,327.629700 351.357330,320.793030 
	C346.244354,314.866821 341.446594,308.669464 336.473969,302.621155 
	C333.804871,299.374695 331.106934,296.149445 328.336426,292.989655 
	C326.103638,290.443146 327.284180,288.851379 329.855835,287.188965 
	C330.655212,287.725403 331.256683,288.552612 331.712646,289.869049 
	C331.362000,292.918335 331.810974,294.976105 335.048706,294.892670 
	C339.953491,300.042542 344.858276,305.192413 349.520752,310.716064 
	C349.044464,311.538269 348.810516,311.986694 348.576599,312.435150 
	C349.067932,312.255005 349.559296,312.074890 350.050629,311.894775 
	C360.456360,323.142212 370.872345,334.380157 381.262390,345.642059 
	C384.954041,349.643463 388.557831,353.725861 392.245026,357.731415 
	C400.406982,366.598145 408.596436,375.439606 416.769592,384.899567 
	C415.509674,386.338501 414.254822,387.169250 413.000000,388.000000 
z"/>
<path fill="#4E6CEA" opacity="1.000000" stroke="none" 
	d="
M418.358643,152.958618 
	C416.292908,150.494080 414.722534,147.730179 412.741180,145.301575 
	C407.394012,138.747345 401.913269,132.300293 396.398071,125.885880 
	C394.270874,123.411873 391.907776,121.140762 390.305511,119.461830 
	C387.084839,120.528809 384.891602,121.255417 382.292084,121.969864 
	C385.125580,118.975052 388.365326,115.992409 391.902679,112.735771 
	C402.400543,124.804535 412.774994,136.731415 423.182343,148.696106 
	C421.491791,150.237030 420.079163,151.524597 418.358643,152.958618 
z"/>
<path fill="#4E6CEA" opacity="1.000000" stroke="none" 
	d="
M250.322769,293.359680 
	C250.670883,293.337006 251.019012,293.314301 251.881546,293.406372 
	C248.201263,307.172516 241.216965,319.230255 231.351410,329.966125 
	C233.147568,326.497711 235.406403,322.961212 237.326263,319.249390 
	C241.651169,310.887756 245.808197,302.439362 250.189819,293.688904 
	C250.346100,293.351593 250.322769,293.359680 250.322769,293.359680 
z"/>
<path fill="#4E6CEA" opacity="1.000000" stroke="none" 
	d="
M325.427460,248.838669 
	C324.740356,247.695648 323.875244,246.260925 324.084381,245.005066 
	C325.502441,236.489990 329.791351,229.580246 336.759033,224.059982 
	C333.692719,230.822617 330.227509,237.583023 326.885040,244.403580 
	C326.254883,245.689453 326.113464,247.214859 325.427460,248.838669 
z"/>
<path fill="#4E6CEA" opacity="1.000000" stroke="none" 
	d="
M413.156067,388.315063 
	C414.254822,387.169250 415.509674,386.338501 416.908020,385.201813 
	C418.085388,385.867615 419.119202,386.839355 421.070343,388.673340 
	C419.033661,390.233978 417.345062,391.527863 415.349548,392.967773 
	C414.465790,391.619263 413.888947,390.124695 413.156067,388.315063 
z"/>
<path fill="#4E6CEA" opacity="1.000000" stroke="none" 
	d="
M324.650330,172.028839 
	C325.125641,175.555771 323.617615,177.501160 319.300110,176.969971 
	C320.704956,175.362366 322.524048,173.767044 324.650330,172.028839 
z"/>
<path fill="#4E6CEA" opacity="1.000000" stroke="none" 
	d="
M316.650330,179.028839 
	C317.125641,182.555771 315.617615,184.501160 311.300110,183.969971 
	C312.704926,182.362350 314.524048,180.767029 316.650330,179.028839 
z"/>
<path fill="#4E6CEA" opacity="1.000000" stroke="none" 
	d="
M332.650330,165.028839 
	C333.125641,168.555771 331.617615,170.501160 327.300110,169.969971 
	C328.704926,168.362366 330.524048,166.767029 332.650330,165.028839 
z"/>
<path fill="#4E6CEA" opacity="1.000000" stroke="none" 
	d="
M340.650330,158.028839 
	C341.125641,161.555771 339.617615,163.501160 335.300110,162.969971 
	C336.704926,161.362350 338.524017,159.767029 340.650330,158.028839 
z"/>
<path fill="#4E6CEA" opacity="1.000000" stroke="none" 
	d="
M348.650330,151.028839 
	C349.125641,154.555771 347.617615,156.501160 343.300110,155.969971 
	C344.704956,154.362366 346.524048,152.767044 348.650330,151.028839 
z"/>
<path fill="#4E6CEA" opacity="1.000000" stroke="none" 
	d="
M355.650330,145.028839 
	C356.125641,148.555771 354.617615,150.501160 350.300110,149.969971 
	C351.704956,148.362366 353.524048,146.767044 355.650330,145.028839 
z"/>
<path fill="#4E6CEA" opacity="1.000000" stroke="none" 
	d="
M363.650330,138.028839 
	C364.125641,141.555771 362.617615,143.501160 358.300110,142.969971 
	C359.704926,141.362366 361.524048,139.767029 363.650330,138.028839 
z"/>
<path fill="#4E6CEA" opacity="1.000000" stroke="none" 
	d="
M371.650330,131.028839 
	C372.125641,134.555771 370.617615,136.501160 366.300110,135.969955 
	C367.704926,134.362350 369.524017,132.767029 371.650330,131.028839 
z"/>
<path fill="#4E6CEA" opacity="1.000000" stroke="none" 
	d="
M379.650391,124.028824 
	C380.125641,127.555763 378.617615,129.501144 374.300110,128.969971 
	C375.704956,127.362358 377.524048,125.767029 379.650391,124.028824 
z"/>
<path fill="#4E6CEA" opacity="1.000000" stroke="none" 
	d="
M252.761169,292.742645 
	C250.520752,290.735565 249.873047,288.639008 253.744324,287.066589 
	C253.722046,288.849152 253.328445,290.657135 252.761169,292.742645 
z"/>
<path fill="#4E6CEA" opacity="1.000000" stroke="none" 
	d="
M335.011353,294.562622 
	C331.810974,294.976105 331.362000,292.918335 331.844421,290.161407 
	C333.072510,291.387238 334.023254,292.809906 335.011353,294.562622 
z"/>
<path fill="#4E6CEA" opacity="1.000000" stroke="none" 
	d="
M183.347046,382.969910 
	C184.155960,381.437134 185.269455,379.760223 186.749222,378.062286 
	C185.960876,379.636078 184.806259,381.230927 183.347046,382.969910 
z"/>
<path fill="#4E6CEA" opacity="1.000000" stroke="none" 
	d="
M194.347061,370.969910 
	C195.155945,369.437103 196.269440,367.760223 197.749237,366.062286 
	C196.960907,367.636108 195.806290,369.230957 194.347061,370.969910 
z"/>
<path fill="#4E6CEA" opacity="1.000000" stroke="none" 
	d="
M224.347046,337.969910 
	C225.155945,336.437103 226.269440,334.760223 227.749222,333.062286 
	C226.960892,334.636108 225.806274,336.230927 224.347046,337.969910 
z"/>
<path fill="#4E6CEA" opacity="1.000000" stroke="none" 
	d="
M214.347046,348.969910 
	C215.155945,347.437103 216.269440,345.760223 217.749207,344.062286 
	C216.960876,345.636078 215.806259,347.230927 214.347046,348.969910 
z"/>
<path fill="#4E6CEA" opacity="1.000000" stroke="none" 
	d="
M204.347061,359.969910 
	C205.155960,358.437134 206.269455,356.760223 207.749237,355.062286 
	C206.960892,356.636108 205.806274,358.230927 204.347061,359.969910 
z"/>
<path fill="#4E6CEA" opacity="1.000000" stroke="none" 
	d="
M382.996704,418.299225 
	C383.990784,418.002838 385.127502,418.009827 386.689148,418.029572 
	C386.039490,420.004730 384.785919,420.697998 382.996704,418.299225 
z"/>
<path fill="#4E6CEA" opacity="1.000000" stroke="none" 
	d="
M350.014252,311.667358 
	C349.559296,312.074890 349.067932,312.255005 348.576599,312.435150 
	C348.810516,311.986694 349.044464,311.538269 349.555908,311.046204 
	C349.833405,311.002625 349.977875,311.439972 350.014252,311.667358 
z"/>
<path fill="#4E6CEA" opacity="1.000000" stroke="none" 
	d="
M250.104858,221.754028 
	C249.813721,221.566681 249.440720,221.057510 249.054977,220.217102 
	C249.369156,220.401306 249.696075,220.916763 250.104858,221.754028 
z"/>
<path fill="#4E6CEA" opacity="1.000000" stroke="none" 
	d="
M246.645782,222.741287 
	C246.956848,222.569092 247.308868,222.610184 247.660904,222.651291 
	C247.573395,222.895706 247.485886,223.140106 247.398361,223.384521 
	C247.161163,223.241211 246.923950,223.097900 246.645782,222.741287 
z"/>
<path fill="#FFFFFF" opacity="1.000000" stroke="none" 
	d="
M250.320618,293.340668 
	C250.322769,293.359680 250.346100,293.351593 250.340668,293.314697 
	C250.335236,293.277771 250.318451,293.321655 250.320618,293.340668 
z"/>
</svg>