<svg version="1.1" id="Layer_1" xmlns="http://www.w3.org/2000/svg" xmlns:xlink="http://www.w3.org/1999/xlink" x="0px" y="0px"
	 width="100%" viewBox="0 0 528 528" enable-background="new 0 0 528 528" xml:space="preserve">
<path fill="#000000" opacity="1.000000" stroke="none" 
	d="
M151.674408,120.318268 
	C166.490112,133.148376 181.257416,145.507248 195.557877,158.384567 
	C208.512192,170.049728 222.533737,180.639572 234.035507,193.796539 
	C245.964645,207.442383 253.228287,223.614288 256.282684,241.502518 
	C261.614532,272.728394 255.027359,301.232147 235.656876,326.405273 
	C229.800964,334.015411 222.972794,340.888763 216.457291,347.977661 
	C201.175659,364.604156 185.608780,380.974243 170.588730,397.832489 
	C164.849945,404.273621 158.917114,410.551697 153.342529,417.140991 
	C150.778824,420.171387 148.659317,420.927429 145.224457,417.688507 
	C136.412262,409.378906 127.140266,401.558319 118.117188,393.469635 
	C116.534073,392.050507 114.770424,390.688660 113.914238,388.407043 
	C119.098152,380.930969 125.880318,374.767334 131.869843,367.932220 
	C144.223099,353.835022 156.931534,340.048187 169.542130,326.177582 
	C177.591431,317.324005 185.484665,308.310455 193.870758,299.784546 
	C217.070099,276.198425 214.506393,238.059479 188.467575,217.524887 
	C179.352783,210.336853 171.021378,202.160522 162.257095,194.521698 
	C150.127319,183.949524 137.777435,173.624252 125.826897,162.854706 
	C120.802002,158.326401 115.045189,154.499451 110.733894,148.559769 
	C116.119217,142.259445 121.450401,135.981384 126.828552,129.743835 
	C130.943466,124.971390 135.151733,120.279221 139.250580,115.493202 
	C141.155563,113.268837 142.920532,112.292572 145.391449,114.851334 
	C147.231262,116.756577 149.400269,118.343918 151.674408,120.318268 
z"/>
<path fill="#000000" opacity="1.000000" stroke="none" 
	d="
M296.371094,198.421722 
	C308.293427,183.222610 323.708649,172.286362 337.686707,159.813751 
	C349.582520,149.199158 361.518158,138.628540 373.499298,128.110367 
	C379.347076,122.976616 385.338715,118.006744 391.390289,112.856262 
	C396.557404,115.713120 399.329559,120.874855 403.160583,124.892860 
	C409.671234,131.721191 415.456482,139.237045 421.654572,146.370132 
	C423.482727,148.474091 423.419128,149.608963 421.142181,151.557541 
	C411.336792,159.948944 401.843140,168.703201 392.114319,177.185867 
	C375.031219,192.080841 357.603516,206.592285 340.829681,221.825470 
	C332.159180,229.699615 327.288300,240.174271 325.377777,251.830063 
	C322.139587,271.585632 328.981903,287.812866 342.378693,302.103668 
	C361.101105,322.075439 379.452545,342.395203 397.942749,362.584351 
	C404.325836,369.553925 410.567963,376.654449 417.036774,383.542816 
	C419.965088,386.661072 421.023560,388.917419 417.055298,392.387054 
	C407.313080,400.905090 397.962494,409.874023 388.535767,418.747955 
	C385.773743,421.348022 383.744659,420.047760 381.768951,417.905548 
	C374.333588,409.843445 366.905121,401.774628 359.525604,393.661469 
	C350.918976,384.199280 342.355560,374.697662 333.792725,365.195740 
	C321.346863,351.384918 308.302063,338.054565 296.661652,323.594360 
	C285.785217,310.083252 279.817322,294.011993 277.582947,276.676178 
	C275.320496,259.122589 276.463104,241.905792 282.289276,225.101761 
	C285.582153,215.604263 290.322571,206.867996 296.371094,198.421722 
z"/>
</svg>