<svg width="32" height="32" viewBox="0 0 32 32" fill="none" xmlns="http://www.w3.org/2000/svg">
<path d="M8.73563 11.2266C10.0448 11.2266 11.106 10.1654 11.106 8.85624C11.106 7.5471 10.0448 6.48584 8.73563 6.48584C7.4265 6.48584 6.36523 7.5471 6.36523 8.85624C6.36523 10.1654 7.4265 11.2266 8.73563 11.2266Z" fill="#B8BABA"/>
<path d="M13.2769 12.9784H17.2054V14.7781C17.2054 14.7781 18.2715 12.646 21.1721 12.646C23.7595 12.646 25.9029 13.9206 25.9029 17.8058V25.9986H21.8319V18.7986C21.8319 16.5067 20.6083 16.2546 19.6759 16.2546C17.7409 16.2546 17.4096 17.9237 17.4096 19.0976V25.9986H13.2769V12.9784Z" fill="#B8BABA"/>
<path d="M6.6693 12.9784H10.802V25.9986H6.6693V12.9784Z" fill="#B8BABA"/>
</svg>
